<?xml version="1.0" standalone="no"?>
<!DOCTYPE svg PUBLIC "-//W3C//DTD SVG 20010904//EN"
 "http://www.w3.org/TR/2001/REC-SVG-20010904/DTD/svg10.dtd">
<svg version="1.0" xmlns="http://www.w3.org/2000/svg"
 width="32.000000pt" height="32.000000pt" viewBox="0 0 32.000000 32.000000"
 preserveAspectRatio="xMidYMid meet">

<g transform="translate(0.000000,32.000000) scale(0.100000,-0.100000)"
fill="#000000" stroke="none">
<path d="M22 298 c-17 -17 -17 -259 0 -276 18 -18 262 -17 277 2 8 9 11 57 9
147 l-3 134 -135 3 c-97 2 -139 -1 -148 -10z m188 -68 c0 -5 -16 -10 -35 -10
-28 0 -35 -4 -35 -20 0 -16 7 -20 30 -20 20 0 30 -5 30 -15 0 -10 -10 -15 -30
-15 -23 0 -30 -5 -30 -19 0 -15 8 -21 33 -23 46 -4 39 -22 -10 -26 l-43 -3 0
80 0 81 45 0 c25 0 45 -4 45 -10z"/>
</g>
</svg>
